<mxfile host="65bd71144e" scale="5" border="10">
    <diagram id="Jwi4ZK6NefV9GYiuC1eN" name="基本フロー">
        <mxGraphModel dx="1444" dy="2579" grid="1" gridSize="10" guides="1" tooltips="1" connect="1" arrows="1" fold="1" page="1" pageScale="1" pageWidth="1169" pageHeight="827" background="#ffffff" math="0" shadow="0">
            <root>
                <mxCell id="0"/>
                <mxCell id="1" parent="0"/>
                <mxCell id="76" style="edgeStyle=none;html=1;dashed=1;endArrow=none;endFill=0;startArrow=none;" parent="1" source="78" edge="1">
                    <mxGeometry relative="1" as="geometry">
                        <mxPoint x="74.99999999999989" y="-880" as="targetPoint"/>
                    </mxGeometry>
                </mxCell>
                <mxCell id="52" value=":User" style="shape=umlActor;verticalLabelPosition=bottom;verticalAlign=top;html=1;outlineConnect=0;" parent="1" vertex="1">
                    <mxGeometry x="60" y="-1520" width="30" height="60" as="geometry"/>
                </mxCell>
                <mxCell id="79" value="" style="edgeStyle=none;html=1;dashed=1;endArrow=none;endFill=0;" parent="1" source="52" target="78" edge="1">
                    <mxGeometry relative="1" as="geometry">
                        <mxPoint x="74.99999999999977" y="-880" as="targetPoint"/>
                        <mxPoint x="75" y="-1460" as="sourcePoint"/>
                    </mxGeometry>
                </mxCell>
                <mxCell id="89" style="edgeStyle=none;html=1;endArrow=block;endFill=1;" parent="1" source="78" edge="1">
                    <mxGeometry relative="1" as="geometry">
                        <mxPoint x="300" y="-1380" as="targetPoint"/>
                    </mxGeometry>
                </mxCell>
                <mxCell id="78" value="" style="html=1;points=[];perimeter=orthogonalPerimeter;" parent="1" vertex="1">
                    <mxGeometry x="70" y="-1400" width="10" height="490" as="geometry"/>
                </mxCell>
                <mxCell id="100" value="get(): graph, pie" style="text;html=1;align=center;verticalAlign=middle;resizable=0;points=[];autosize=1;strokeColor=none;fillColor=none;" parent="1" vertex="1">
                    <mxGeometry x="130" y="-1410" width="110" height="30" as="geometry"/>
                </mxCell>
                <mxCell id="155" value="感情分析結果確認" style="text;html=1;align=center;verticalAlign=middle;resizable=0;points=[];autosize=1;strokeColor=none;fillColor=none;fontSize=32;" parent="1" vertex="1">
                    <mxGeometry x="10" y="-1640" width="280" height="50" as="geometry"/>
                </mxCell>
                <mxCell id="166" value="&lt;p style=&quot;margin:0px;margin-top:4px;text-align:center;&quot;&gt;&lt;i&gt;&amp;lt;&amp;lt;boundary&amp;gt;&amp;gt;&lt;/i&gt;&lt;br&gt;&lt;b&gt;:AnalysisView&lt;/b&gt;&lt;/p&gt;" style="verticalAlign=top;align=left;overflow=fill;fontSize=12;fontFamily=Helvetica;html=1;" vertex="1" parent="1">
                    <mxGeometry x="220" y="-1500" width="180" height="40" as="geometry"/>
                </mxCell>
                <mxCell id="167" value="&lt;p style=&quot;margin:0px;margin-top:4px;text-align:center;&quot;&gt;&lt;i&gt;&amp;lt;&amp;lt;control&amp;gt;&amp;gt;&lt;/i&gt;&lt;br&gt;&lt;b&gt;:DiaryController&lt;/b&gt;&lt;/p&gt;" style="verticalAlign=top;align=left;overflow=fill;fontSize=12;fontFamily=Helvetica;html=1;" vertex="1" parent="1">
                    <mxGeometry x="500" y="-1500" width="180" height="40" as="geometry"/>
                </mxCell>
                <mxCell id="168" value="&lt;p style=&quot;margin:0px;margin-top:4px;text-align:center;&quot;&gt;&lt;i&gt;&amp;lt;&amp;lt;control&amp;gt;&amp;gt;&lt;/i&gt;&lt;br&gt;&lt;b&gt;:AnalysisController&lt;/b&gt;&lt;/p&gt;" style="verticalAlign=top;align=left;overflow=fill;fontSize=12;fontFamily=Helvetica;html=1;" vertex="1" parent="1">
                    <mxGeometry x="780" y="-1500" width="180" height="40" as="geometry"/>
                </mxCell>
                <mxCell id="169" value="&lt;p style=&quot;margin:0px;margin-top:4px;text-align:center;&quot;&gt;&lt;i&gt;&amp;lt;&amp;lt;entity&lt;/i&gt;&lt;i style=&quot;background-color: initial;&quot;&gt;&amp;gt;&amp;gt;&lt;/i&gt;&lt;/p&gt;&lt;p style=&quot;margin:0px;margin-top:4px;text-align:center;&quot;&gt;&lt;b&gt;:Diary&lt;/b&gt;&lt;/p&gt;" style="verticalAlign=top;align=left;overflow=fill;fontSize=12;fontFamily=Helvetica;html=1;" vertex="1" parent="1">
                    <mxGeometry x="1060" y="-1500" width="180" height="40" as="geometry"/>
                </mxCell>
                <mxCell id="170" value="" style="edgeStyle=none;html=1;dashed=1;endArrow=none;endFill=0;exitX=0.5;exitY=1;exitDx=0;exitDy=0;startArrow=none;" edge="1" parent="1" source="171">
                    <mxGeometry relative="1" as="geometry">
                        <mxPoint x="309.58000000000004" y="-1380" as="targetPoint"/>
                        <mxPoint x="309.58000000000004" y="-1440" as="sourcePoint"/>
                        <Array as="points">
                            <mxPoint x="310" y="-880"/>
                        </Array>
                    </mxGeometry>
                </mxCell>
                <mxCell id="172" value="" style="edgeStyle=none;html=1;dashed=1;endArrow=none;endFill=0;exitX=0.5;exitY=1;exitDx=0;exitDy=0;" edge="1" parent="1" source="166" target="171">
                    <mxGeometry relative="1" as="geometry">
                        <mxPoint x="309.5799999999999" y="-1380" as="targetPoint"/>
                        <mxPoint x="310" y="-1460" as="sourcePoint"/>
                        <Array as="points"/>
                    </mxGeometry>
                </mxCell>
                <mxCell id="178" style="edgeStyle=none;html=1;" edge="1" parent="1" source="171">
                    <mxGeometry relative="1" as="geometry">
                        <mxPoint x="580" y="-1360" as="targetPoint"/>
                    </mxGeometry>
                </mxCell>
                <mxCell id="187" style="edgeStyle=none;html=1;" edge="1" parent="1" source="171">
                    <mxGeometry relative="1" as="geometry">
                        <mxPoint x="860" y="-1200" as="targetPoint"/>
                    </mxGeometry>
                </mxCell>
                <mxCell id="171" value="" style="html=1;points=[];perimeter=orthogonalPerimeter;" vertex="1" parent="1">
                    <mxGeometry x="305" y="-1380" width="10" height="440" as="geometry"/>
                </mxCell>
                <mxCell id="173" value="" style="edgeStyle=none;html=1;dashed=1;endArrow=none;endFill=0;exitX=0.5;exitY=1;exitDx=0;exitDy=0;startArrow=none;" edge="1" parent="1" source="176">
                    <mxGeometry relative="1" as="geometry">
                        <mxPoint x="590" y="-880" as="targetPoint"/>
                        <mxPoint x="540" y="-1390" as="sourcePoint"/>
                        <Array as="points"/>
                    </mxGeometry>
                </mxCell>
                <mxCell id="174" value="" style="edgeStyle=none;html=1;dashed=1;endArrow=none;endFill=0;exitX=0.5;exitY=1;exitDx=0;exitDy=0;startArrow=none;" edge="1" parent="1" source="180">
                    <mxGeometry relative="1" as="geometry">
                        <mxPoint x="870" y="-880" as="targetPoint"/>
                        <mxPoint x="750" y="-1430" as="sourcePoint"/>
                        <Array as="points"/>
                    </mxGeometry>
                </mxCell>
                <mxCell id="175" value="" style="edgeStyle=none;html=1;dashed=1;endArrow=none;endFill=0;exitX=0.5;exitY=1;exitDx=0;exitDy=0;startArrow=none;" edge="1" parent="1" source="189">
                    <mxGeometry relative="1" as="geometry">
                        <mxPoint x="1150" y="-880" as="targetPoint"/>
                        <mxPoint x="1010" y="-1440" as="sourcePoint"/>
                        <Array as="points"/>
                    </mxGeometry>
                </mxCell>
                <mxCell id="177" value="" style="edgeStyle=none;html=1;dashed=1;endArrow=none;endFill=0;exitX=0.5;exitY=1;exitDx=0;exitDy=0;" edge="1" parent="1" source="167" target="176">
                    <mxGeometry relative="1" as="geometry">
                        <mxPoint x="590" y="-880" as="targetPoint"/>
                        <mxPoint x="590" y="-1460" as="sourcePoint"/>
                        <Array as="points"/>
                    </mxGeometry>
                </mxCell>
                <mxCell id="182" style="edgeStyle=none;html=1;" edge="1" parent="1" source="176">
                    <mxGeometry relative="1" as="geometry">
                        <mxPoint x="1140" y="-1340" as="targetPoint"/>
                    </mxGeometry>
                </mxCell>
                <mxCell id="176" value="" style="html=1;points=[];perimeter=orthogonalPerimeter;" vertex="1" parent="1">
                    <mxGeometry x="585" y="-1360" width="10" height="130" as="geometry"/>
                </mxCell>
                <mxCell id="179" value="get_user_diaries(user_id)" style="text;html=1;align=center;verticalAlign=middle;resizable=0;points=[];autosize=1;strokeColor=none;fillColor=none;" vertex="1" parent="1">
                    <mxGeometry x="370" y="-1390" width="160" height="30" as="geometry"/>
                </mxCell>
                <mxCell id="181" value="" style="edgeStyle=none;html=1;dashed=1;endArrow=none;endFill=0;exitX=0.5;exitY=1;exitDx=0;exitDy=0;" edge="1" parent="1" source="168" target="180">
                    <mxGeometry relative="1" as="geometry">
                        <mxPoint x="869.9999999999998" y="-880" as="targetPoint"/>
                        <mxPoint x="870.0000000000002" y="-1460" as="sourcePoint"/>
                        <Array as="points"/>
                    </mxGeometry>
                </mxCell>
                <mxCell id="191" style="edgeStyle=none;html=1;" edge="1" parent="1" source="180">
                    <mxGeometry relative="1" as="geometry">
                        <mxPoint x="1140" y="-1180" as="targetPoint"/>
                    </mxGeometry>
                </mxCell>
                <mxCell id="180" value="" style="html=1;points=[];perimeter=orthogonalPerimeter;" vertex="1" parent="1">
                    <mxGeometry x="865" y="-1200" width="10" height="170" as="geometry"/>
                </mxCell>
                <mxCell id="183" value="query.order_by(desc(Diary.create_at)).filter_by(user_id=user_id).all(): diaries" style="text;html=1;align=center;verticalAlign=middle;resizable=0;points=[];autosize=1;strokeColor=none;fillColor=none;" vertex="1" parent="1">
                    <mxGeometry x="595" y="-1370" width="430" height="30" as="geometry"/>
                </mxCell>
                <mxCell id="186" value="" style="edgeStyle=none;html=1;dashed=1;endArrow=none;endFill=0;exitX=0.5;exitY=1;exitDx=0;exitDy=0;" edge="1" parent="1" source="169" target="185">
                    <mxGeometry relative="1" as="geometry">
                        <mxPoint x="1150" y="-880" as="targetPoint"/>
                        <mxPoint x="1150" y="-1460" as="sourcePoint"/>
                        <Array as="points"/>
                    </mxGeometry>
                </mxCell>
                <mxCell id="185" value="" style="html=1;points=[];perimeter=orthogonalPerimeter;" vertex="1" parent="1">
                    <mxGeometry x="1145" y="-1340" width="10" height="90" as="geometry"/>
                </mxCell>
                <mxCell id="188" value="analysis_result(user_id): graph, pie" style="text;html=1;align=center;verticalAlign=middle;resizable=0;points=[];autosize=1;strokeColor=none;fillColor=none;" vertex="1" parent="1">
                    <mxGeometry x="350" y="-1230" width="210" height="30" as="geometry"/>
                </mxCell>
                <mxCell id="190" value="" style="edgeStyle=none;html=1;dashed=1;endArrow=none;endFill=0;exitX=0.5;exitY=1;exitDx=0;exitDy=0;startArrow=none;" edge="1" parent="1" source="185" target="189">
                    <mxGeometry relative="1" as="geometry">
                        <mxPoint x="1150" y="-880" as="targetPoint"/>
                        <mxPoint x="1150" y="-1250" as="sourcePoint"/>
                        <Array as="points"/>
                    </mxGeometry>
                </mxCell>
                <mxCell id="189" value="" style="html=1;points=[];perimeter=orthogonalPerimeter;" vertex="1" parent="1">
                    <mxGeometry x="1145" y="-1180" width="10" height="60" as="geometry"/>
                </mxCell>
                <mxCell id="192" value="query.filter_by(user_id=user_id).all()" style="text;html=1;align=center;verticalAlign=middle;resizable=0;points=[];autosize=1;strokeColor=none;fillColor=none;" vertex="1" parent="1">
                    <mxGeometry x="875" y="-1210" width="220" height="30" as="geometry"/>
                </mxCell>
            </root>
        </mxGraphModel>
    </diagram>
</mxfile>